<svg width="26" height="25" viewBox="0 0 26 25" fill="none" xmlns="http://www.w3.org/2000/svg">
<path d="M2.26238 1H23.7374C23.9313 1.00006 24.1211 1.05654 24.2836 1.16254C24.446 1.26855 24.5741 1.41951 24.6523 1.59703C24.7304 1.77456 24.7553 1.97098 24.7238 2.16238C24.6923 2.35378 24.6058 2.53188 24.4749 2.675L16.2624 11.7125C16.0915 11.8955 15.9975 12.1371 15.9999 12.3875V19.4625C16.0014 19.6287 15.961 19.7926 15.8823 19.939C15.8036 20.0854 15.6893 20.2095 15.5499 20.3L11.5499 22.9625C11.3998 23.0613 11.2259 23.1179 11.0465 23.1263C10.867 23.1347 10.6886 23.0945 10.53 23.0101C10.3714 22.9257 10.2384 22.8001 10.1452 22.6466C10.0519 22.493 10.0017 22.3172 9.99988 22.1375V12.3875C10.0023 12.1371 9.9083 11.8955 9.73738 11.7125L1.52488 2.675C1.39395 2.53188 1.30747 2.35378 1.27597 2.16238C1.24447 1.97098 1.26932 1.77456 1.34748 1.59703C1.42565 1.41951 1.55375 1.26855 1.7162 1.16254C1.87864 1.05654 2.06841 1.00006 2.26238 1V1Z" stroke="#006D85" stroke-width="2" stroke-linecap="round" stroke-linejoin="round"/>
</svg>
