<svg width="62" height="62" viewBox="0 0 62 62" fill="none" xmlns="http://www.w3.org/2000/svg">
<rect width="62" height="62" rx="31" fill="#EB5757" fill-opacity="0.1"/>
<g clip-path="url(#clip0_3302_5048)">
<path d="M32.5953 20.5451C32.4344 20.2649 32.2025 20.0321 31.9229 19.8702C31.6432 19.7083 31.3259 19.623 31.0028 19.623C30.6797 19.623 30.3623 19.7083 30.0827 19.8702C29.8031 20.0321 29.5711 20.2649 29.4103 20.5451L18.2676 39.504C17.525 40.7682 18.4155 42.3753 19.8601 42.3753H42.1438C43.5884 42.3753 44.4805 40.7666 43.7363 39.504L32.5953 20.5451ZM30.9995 26.1253C31.8689 26.1253 32.5498 26.8761 32.462 27.7422L31.8933 33.4411C31.8742 33.665 31.7717 33.8735 31.6062 34.0255C31.4407 34.1775 31.2242 34.2618 30.9995 34.2618C30.7748 34.2618 30.5583 34.1775 30.3928 34.0255C30.2273 33.8735 30.1249 33.665 30.1058 33.4411L29.537 27.7422C29.5166 27.5379 29.5392 27.3315 29.6034 27.1364C29.6676 26.9413 29.7719 26.7618 29.9097 26.6095C30.0475 26.4571 30.2156 26.3354 30.4033 26.252C30.591 26.1686 30.7941 26.1255 30.9995 26.1253ZM31.0028 35.8753C31.4337 35.8753 31.8471 36.0466 32.1518 36.3513C32.4566 36.656 32.6278 37.0694 32.6278 37.5003C32.6278 37.9313 32.4566 38.3447 32.1518 38.6494C31.8471 38.9541 31.4337 39.1253 31.0028 39.1253C30.5718 39.1253 30.1585 38.9541 29.8537 38.6494C29.549 38.3447 29.3778 37.9313 29.3778 37.5003C29.3778 37.0694 29.549 36.656 29.8537 36.3513C30.1585 36.0466 30.5718 35.8753 31.0028 35.8753Z" fill="#EB5757"/>
</g>
<rect x="3.5" y="3.5" width="55" height="55" rx="27.5" stroke="#EB5757" stroke-opacity="0.1" stroke-width="7"/>
<defs>
<clipPath id="clip0_3302_5048">
<rect width="26" height="26" fill="white" transform="translate(18 18)"/>
</clipPath>
</defs>
</svg>
